<svg xmlns="http://www.w3.org/2000/svg" viewBox="0 0 16.93 16.93">
  <defs id="defs1" />
  <g id="layer1">
    <circle
       style="fill:#000000;stroke-width:0.36;fill-opacity:1"
       id="circle"
       cx="8.5"
       cy="8.5"
       r="8.5" />
    <path
       style="fill:#ffffff;stroke-width:0.26;"
       d="m 7.4,9.4 q 0,-0.6 0.25,-0.9 Q 7.9,8.1 8.5,7.6 8.97,7.3 9.2,7 q 0.25,-0.3 0.25,-0.6 0,-0.4 -0.3,-0.54 Q 8.88,5.66 8.41,5.66 7.93,5.66 7.47,5.80 7.01,5.95 6.52,6.20 L 5.92,4.99 Q 6.47,4.69 7.12,4.49 7.76,4.30 8.53,4.30 q 1.17,0 1.81,0.6 0.65,0.6 0.65,1.43 0,0.46 -0.14,0.80 -0.14,0.33 -0.44,0.63 Q 10.12,8.02 9.68,8.34 9.35,8.58 9.17,8.75 8.99,8.92 8.92,9.08 8.87,9.23 8.87,9.47 V 9.80 H 7.4 Z m -0.18,2.29 q 0,-0.51 0.28,-0.72 0.28,-0.21 0.68,-0.21 0.39,0 0.67,0.21 0.28,0.20 0.28,0.72 0,0.49 -0.28,0.72 -0.28,0.21 -0.67,0.21 -0.40,0 -0.68,-0.21 -0.28,-0.25 -0.28,-0.72 z"
       id="questionmark"
       aria-label="?" />
  </g>
</svg>
