<svg viewBox="0 0 228 96" xmlns="http://www.w3.org/2000/svg">
  <title>Normal Color Vision</title>
  <style>
    path {
      fill-rule: nonzero;
      stroke: white;
      stroke-width: 1px;
    }

    .short {
      fill: hsl(240, 100%, 43%);
    }

    .medium {
      fill: hsl(106, 58%, 41%);
    }

    .long {
      fill: hsl(5, 83%, 53%);
    }
  </style>
  <path class="short" transform="translate(0,20)" d="M93.299,47.35C83.481,31.582 66.547,22.169 48,22.169C29.452,22.169 12.518,31.583 2.701,47.351C2.453,47.749 2.453,48.253 2.701,48.651C12.518,64.418 29.452,73.831 48,73.831C66.547,73.831 83.481,64.417 93.299,48.649C93.547,48.252 93.547,47.748 93.299,47.35Z"/>
  <path class="medium" transform="translate(66,-20)" d="M93.299,47.35C83.481,31.582 66.547,22.169 48,22.169C29.452,22.169 12.518,31.583 2.701,47.351C2.453,47.749 2.453,48.253 2.701,48.651C12.518,64.418 29.452,73.831 48,73.831C66.547,73.831 83.481,64.417 93.299,48.649C93.547,48.252 93.547,47.748 93.299,47.35Z"/>
  <path class="long" transform="translate(132,20)" d="M93.299,47.35C83.481,31.582 66.547,22.169 48,22.169C29.452,22.169 12.518,31.583 2.701,47.351C2.453,47.749 2.453,48.253 2.701,48.651C12.518,64.418 29.452,73.831 48,73.831C66.547,73.831 83.481,64.417 93.299,48.649C93.547,48.252 93.547,47.748 93.299,47.35Z"/>
</svg>
