<svg viewBox="0 0 228 96" xmlns="http://www.w3.org/2000/svg">
  <title>Deutan (Green-Red) Color Vision Deficiency</title>
  <style>
    path {
      fill-rule: nonzero;
      stroke: white;
      stroke-width: 1px;
    }

    .short {
      fill: hsl(240, 100%, 43%);
    }

    .medium {
      fill: none;
      stroke: hsl(106, 58%, 41%);
      stroke-width: 10px;
    }

    .long {
      fill: hsl(5, 83%, 53%);
    }
  </style>
  <path class="short" transform="translate(0,20)" d="M93.299,47.35C83.481,31.582 66.547,22.169 48,22.169C29.452,22.169 12.518,31.583 2.701,47.351C2.453,47.749 2.453,48.253 2.701,48.651C12.518,64.418 29.452,73.831 48,73.831C66.547,73.831 83.481,64.417 93.299,48.649C93.547,48.252 93.547,47.748 93.299,47.35Z"/>
  <path class="medium" transform="translate(66,-20)" d="M48,71.373C30.563,71.373 14.622,62.651 5.199,48C14.622,33.349 30.563,24.627 48,24.627C65.436,24.627 81.378,33.349 90.801,48C81.378,62.651 65.436,71.373 48,71.373Z"/>
  <path class="long" transform="translate(132,20)" d="M93.299,47.35C83.481,31.582 66.547,22.169 48,22.169C29.452,22.169 12.518,31.583 2.701,47.351C2.453,47.749 2.453,48.253 2.701,48.651C12.518,64.418 29.452,73.831 48,73.831C66.547,73.831 83.481,64.417 93.299,48.649C93.547,48.252 93.547,47.748 93.299,47.35Z"/>
</svg>
