<svg xmlns="http://www.w3.org/2000/svg" viewBox="0 0 100 100">

  <style>
    path {
      fill: none;
      stroke: black;
      stroke-width: 7px;
      stroke-linejoin: round;
      stroke-linecap: round;
    }
  </style>
  <path
    d="M50 4.6875c-21.875 0-39.062 9.2188-39.062 20.938v48.594c0 11.875 17.188 21.094 39.062 21.094s39.062-9.2188 39.062-20.938v-48.75c0-11.719-17.188-20.938-39.062-20.938zm35.938 69.688c0 9.6875-16.406 17.812-35.938 17.812s-35.938-8.125-35.938-17.812v-15.938c5.9375 7.5 19.531 12.656 35.938 12.656s30-5.1562 35.938-12.656zm0-24.375c0 9.6875-16.406 17.812-35.938 17.812s-35.938-8.125-35.938-17.812v-15.938c5.9375 7.5 19.531 12.656 35.938 12.656s30-5.1562 35.938-12.656zm-35.938-6.4062c-19.531 0-35.938-8.125-35.938-17.812s16.406-17.969 35.938-17.969 35.938 8.125 35.938 17.812-16.406 17.969-35.938 17.969z" />
</svg>