<svg viewBox="0 0 100 100" xmlns="http://www.w3.org/2000/svg">
  <style>
    path {
      stroke: black;
      stroke-width: 8; 
      stroke-linecap:round; 
      fill: none;
    }

    path#speaker {
      stroke: none;
      fill: black;
    }
  </style>

  <path id="speaker" d="M 52.9,11.7 C 50,10.2 46.5,10.5 43.8,12.5 L 20.9,29.5 C 20.7,29.7 20.3,29.8 20,29.8 H 11.1 C 6.3,29.8 2.4,33.7 2.4,38.5 V 61.5 C 2.4,66.3 6.3,70.2 11.1,70.2 H 20 C 20.3,70.2 20.6,70.3 20.9,70.5 L 43.8,87.5 C 45.3,88.6 47.1,89.2 49,89.2 50.3,89.2 51.7,88.9 52.9,88.3 55.8,86.8 57.7,83.8 57.7,80.5 V 19.5 C 57.6,16.2 55.8,13.2 52.9,11.7 Z" />

  <path d="M70.5,31 C78.5,40 78.5,60 70.5,69" />
  <path d="M81.5,17 C97.5,34 97.5,66 81.5,83" />
</svg>
