<svg xmlns="http://www.w3.org/2000/svg" viewBox="0 0 100 100">
  <path
    d="m44.375 88.531c1.7109 1.5938 3.5977 2.9883 5.625 4.1562-7.1992 4.1562-15.762 5.2734-23.789 3.0977-8.0234-2.1719-14.852-7.4531-18.973-14.676-4.1211-7.2227-5.1914-15.789-2.9805-23.801 2.2148-8.0156 7.5312-14.82 14.773-18.902 0.25391 2.1992 0.76953 4.3594 1.5312 6.4375 2.5391 7.0938 7.5391 13.039 14.094 16.75-0.1875 1.3359-0.28125 2.6836-0.28125 4.0312-0.007812 8.6953 3.6172 17 10 22.906zm36.594-50.125c-0.25391 2.1992-0.76953 4.3594-1.5312 6.4375-2.5391 7.0938-7.5391 13.039-14.094 16.75 0.1875 1.3359 0.28125 2.6836 0.28125 4.0312 0.007812 8.6953-3.6172 17-10 22.906-1.7109 1.5938-3.5977 2.9883-5.625 4.1562 7.1992 4.1562 15.762 5.2734 23.789 3.0977 8.0234-2.1719 14.852-7.4531 18.973-14.676 4.1211-7.2227 5.1914-15.789 2.9805-23.801-2.2148-8.0156-7.5312-14.82-14.773-18.902zm-7.1875 3.625c-2.6172-0.92969-5.3789-1.4062-8.1562-1.4062-3.4414-0.003906-6.8477 0.71094-10 2.0938 3.6914 3.4258 6.5 7.6914 8.1875 12.438 4.7266-3.1055 8.2461-7.7383 9.9688-13.125zm-14.438 22.156c-6.082 1.918-12.605 1.918-18.688 0-0.03125 0.46875-0.03125 0.96875-0.03125 1.4375-0.007812 7.5781 3.4453 14.75 9.375 19.469 5.9297-4.7188 9.3828-11.891 9.375-19.469 0-0.46875 0-0.96875-0.03125-1.4375zm-9.3438-4.8125c2.7773 0 5.5391-0.47656 8.1562-1.4062-1.4844-4.6602-4.3242-8.7734-8.1562-11.812-3.832 3.0391-6.6719 7.1523-8.1562 11.812 2.6172 0.92969 5.3789 1.4062 8.1562 1.4062zm-15.625-18.75c-2.7773 0-5.5391 0.47656-8.1562 1.4062 1.7227 5.3867 5.2422 10.02 9.9688 13.125 1.6875-4.7461 4.4961-9.0117 8.1875-12.438-3.1523-1.3828-6.5586-2.0977-10-2.0938zm0-6.25c5.4844-0.003906 10.875 1.4414 15.625 4.1875 4.75-2.7461 10.141-4.1914 15.625-4.1875 3.1719-0.003906 6.3203 0.48047 9.3438 1.4375 2.0859 0.65234 4.0977 1.5195 6 2.5938 0.1875-1.3359 0.28125-2.6836 0.28125-4.0312 0-11.164-5.957-21.48-15.625-27.062s-21.582-5.582-31.25 0-15.625 15.898-15.625 27.062c0 1.3477 0.09375 2.6953 0.28125 4.0312 1.9023-1.0742 3.9141-1.9414 6-2.5938 3.0234-0.95703 6.1719-1.4414 9.3438-1.4375z" />
</svg>