<svg xmlns="http://www.w3.org/2000/svg" viewBox="0 0 100 100">
  <style>
    path {
      fill: none;
      stroke: black;
      stroke-width: 5px;
      stroke-linejoin: round;
      stroke-linecap: round;
    }
  </style>
  <path
    d="M95,23.6 A14.1,14.1,0,0,0,80.8,9.4 H19.1 A14.1,14.1,0,0,0,5,23.6 V52.1 A14.1,14.1,0,0,0,19.1,66.2 H45.7 L69.0,89.9 a1.9,1.9,0,0,0,3.4 -1.5 L70.4,66.2 H80.8 A14.1,14.1,0,0,0,95,52.1 ZM91.0,52.1 a10.1,10.1,0,0,1-10.1,10.1 H68.2 a1.9,1.9,0,0,0-1.9,2.1 L67.9,83.1 l-19.9 -20.2 a1.9,1.9,0,0,0-1.4 -.59567h-27.4 a10.1,10.1,0,0,1-10.1 -10.1 V23.6 a10.1,10.1,0,0,1,10.1 -10.1 H80.8 a10.1,10.1,0,0,1,10.1,10.1 Z
    M20,25 H75 M20,37.5 H75 M20,50 H75" />
</svg>